<?xml version="1.0" encoding="utf-8"?>
<!-- Generator: Adobe Illustrator 18.1.1, SVG Export Plug-In . SVG Version: 6.00 Build 0)  -->
<svg version="1.1" id="Layer_1" xmlns="http://www.w3.org/2000/svg" xmlns:xlink="http://www.w3.org/1999/xlink" x="0px" y="0px"
	 viewBox="0 0 100 100" enable-background="new 0 0 100 100" xml:space="preserve">
<circle fill="#A2A242" stroke="#A2A242" stroke-width="11.9658" stroke-miterlimit="10" cx="50" cy="50" r="39.3"/>
<rect x="22.4" y="51.5" fill="#FFA09E" width="53.8" height="28.9"/>
<rect x="25.2" y="33.7" fill="#FFA09E" width="47.9" height="18.2"/>
<rect x="31.4" y="20.4" fill="#FFA09E" width="35.1" height="13.4"/>
<polygon fill="#205D76" stroke="#205D76" stroke-width="6.000000e-02" stroke-miterlimit="10" points="48.9,14.8 57.7,17.6 
	66.4,20.4 48.9,20.4 31.5,20.4 40.2,17.6 "/>
<rect x="43.6" y="67.3" fill="#205D76" width="11" height="13.2"/>
<rect x="25.2" y="33.6" fill="#205D76" width="47.9" height="1.9"/>
<rect x="22.3" y="51.5" fill="#205D76" width="53.9" height="1.7"/>
<path fill="#FFFFFF" d="M59.2,30.5c0-3.9-4.5-7.2-10.1-7.2S39,26.6,39,30.5H59.2z"/>
<rect x="38.8" y="30.5" fill="#205D76" width="20.7" height="0.7"/>
<path fill="#FFFFFF" stroke="#FFFFFF" stroke-width="0.3" stroke-linecap="round" stroke-linejoin="round" stroke-miterlimit="10" d="
	M54.5,67.2c0-1.5-2.4-2.8-5.4-2.8c-3,0-5.4,1.2-5.4,2.8H54.5z"/>
<rect x="31.5" y="38.4" fill="#FFD265" width="13.7" height="8.8"/>
<rect x="53" y="38.4" fill="#FFD265" width="13.7" height="8.8"/>
<g>
	<rect x="22.4" y="53.2" fill="#FFFFFF" width="53.8" height="1.1"/>
	<ellipse fill="#FFFFFF" cx="26.7" cy="54.3" rx="4.3" ry="1.1"/>
	<ellipse fill="#FFFFFF" cx="33.8" cy="54.4" rx="4.3" ry="1.1"/>
	<ellipse fill="#FFFFFF" cx="41.3" cy="54.4" rx="4.3" ry="1.1"/>
	<ellipse fill="#FFFFFF" cx="49.1" cy="54.3" rx="4.3" ry="1.1"/>
	<ellipse fill="#FFFFFF" cx="56.7" cy="54.4" rx="4.3" ry="1.1"/>
	<ellipse fill="#FFFFFF" cx="64.3" cy="54.4" rx="4.3" ry="1.1"/>
	<ellipse fill="#FFFFFF" cx="71.8" cy="54.4" rx="4.3" ry="1.1"/>
</g>
<ellipse fill="#FFFFFF" cx="32.9" cy="68.6" rx="4.6" ry="4.8"/>
<ellipse fill="#FFFFFF" cx="66.4" cy="68.6" rx="4.6" ry="4.8"/>
</svg>
