<?xml version="1.0" encoding="utf-8"?>
<!-- Generator: Adobe Illustrator 18.1.1, SVG Export Plug-In . SVG Version: 6.00 Build 0)  -->
<svg version="1.1" id="Layer_1" xmlns="http://www.w3.org/2000/svg" xmlns:xlink="http://www.w3.org/1999/xlink" x="0px" y="0px"
	 viewBox="0 0 100 100" enable-background="new 0 0 100 100" xml:space="preserve">
<g>
	<circle fill="#62D4D4" stroke="#62D4D4" stroke-width="12.1159" stroke-miterlimit="10" cx="50" cy="50" r="39.3"/>
	<polygon fill="#9A916F" points="42,11.5 45.1,13 48.2,14.4 42,14.4 35.8,14.4 38.9,13 	"/>
	<rect x="28.2" y="31.8" fill="#FFC122" width="44.6" height="51.8"/>
	
		<polygon fill="#664D25" stroke="#664D25" stroke-width="4.721390e-02" stroke-linecap="round" stroke-linejoin="round" stroke-miterlimit="10" points="
		72.9,31.9 28.1,31.9 35.8,21.9 65.2,21.9 	"/>
	<rect x="28.2" y="31.8" fill="#FFAAA8" width="44.6" height="3.3"/>
	<rect x="35.9" y="14.3" fill="#664D25" width="12.2" height="10.9"/>
	<rect x="53.6" y="14.6" fill="#664D25" width="12" height="10.9"/>
	<polygon fill="#9A916F" points="59.6,11.8 62.6,13.2 65.7,14.6 59.6,14.6 53.5,14.6 56.5,13.2 	"/>
	<path fill="#FFFFFF" d="M40.7,40c2.2,0,4,1.9,4,4.2v6.9l-8.1,0l0.1-6.9C36.6,41.9,38.4,40,40.7,40L40.7,40"/>
	<path fill="#A2A242" stroke="#A2A242" stroke-width="4.8429" stroke-miterlimit="10" d="M44.6,43.5c0-1.9-1.8-3.4-3.9-3.4
		c-2.2,0-3.9,1.5-3.9,3.4H44.6z"/>
	<path fill="#FFFFFF" d="M60,40.2c2.2,0,4,1.9,4,4.2v6.9l-8.1,0l0.1-6.9C56,42.1,57.8,40.2,60,40.2L60,40.2"/>
	<path fill="#A2A242" stroke="#A2A242" stroke-width="4.8429" stroke-miterlimit="10" d="M63.9,43.6c0-1.9-1.8-3.4-3.9-3.4
		c-2.2,0-3.9,1.5-3.9,3.4H63.9z"/>
	<rect x="39.5" y="16.2" fill="#FFFFFF" width="5" height="4.3"/>
	<rect x="57.3" y="16.2" fill="#FFFFFF" width="5" height="4.3"/>
	<path fill="#FF5774" stroke="#FF5774" stroke-width="5.2666" stroke-miterlimit="10" d="M54.3,81c0-5.6-1.8-10.2-3.9-10.2
		c-2.2,0-3.9,4.6-3.9,10.2H54.3z"/>
	<path fill="#FFFFFF" d="M40.7,55.5c2.2,0,4,1.9,4,4.2v6.9l-8.1,0l0.1-6.9C36.6,57.4,38.4,55.5,40.7,55.5L40.7,55.5"/>
	<path fill="#A2A242" stroke="#A2A242" stroke-width="4.8429" stroke-miterlimit="10" d="M44.6,58.9c0-1.9-1.8-3.4-3.9-3.4
		c-2.2,0-3.9,1.5-3.9,3.4H44.6z"/>
	<path fill="#FFFFFF" d="M60,55.7c2.2,0,4,1.9,4,4.2v6.9l-8.1,0l0.1-6.9C56,57.5,57.8,55.7,60,55.7L60,55.7"/>
	<path fill="#A2A242" stroke="#A2A242" stroke-width="4.8429" stroke-miterlimit="10" d="M63.9,59.1c0-1.9-1.8-3.4-3.9-3.4
		c-2.2,0-3.9,1.5-3.9,3.4H63.9z"/>
</g>
</svg>
