<?xml version="1.0" encoding="utf-8"?>
<!-- Generator: Adobe Illustrator 18.1.1, SVG Export Plug-In . SVG Version: 6.00 Build 0)  -->
<svg version="1.1" id="Layer_1" xmlns="http://www.w3.org/2000/svg" xmlns:xlink="http://www.w3.org/1999/xlink" x="0px" y="0px"
	 viewBox="0 0 100 100" enable-background="new 0 0 100 100" xml:space="preserve">
<g>
	<circle fill="#FFA09E" stroke="#FFA09E" stroke-width="12.0191" stroke-miterlimit="10" cx="50" cy="50" r="39.4"/>
	<g>
		<path fill="#A2A242" d="M71.2,31.2v52.3H29.6c0,0,0-52.2,0-52.3c0,0,4.5-1.5,5-1.7c1.8-0.8,3.5-1.8,4.9-3c2.9-2.4,3.5-4.8,3.5-7.9
			c0-2.8,3.2-5.1,7.1-5.1c2,0,3.7,0.6,5,1.5c1.3,0.9,2.1,2.2,2.1,3.6c0,3.1,0.8,5.5,3.7,7.9C63.6,28.8,67.2,30.4,71.2,31.2z"/>
		<g>
			<circle fill="#62D4D4" cx="50" cy="28.7" r="4.1"/>
			<g>
				
					<line fill="none" stroke="#205D76" stroke-width="0.3586" stroke-linecap="round" stroke-linejoin="round" stroke-miterlimit="10" x1="50" y1="29" x2="50" y2="26.3"/>
				
					<line fill="none" stroke="#205D76" stroke-width="0.3586" stroke-linecap="round" stroke-linejoin="round" stroke-miterlimit="10" x1="50" y1="29" x2="52.4" y2="29"/>
			</g>
		</g>
		<g>
			<path fill="#FFFFFF" d="M40.8,38.3c2.5,0,4.5,1.8,4.5,3.9v6.4l-9,0l0.1-6.4C36.4,40.1,38.4,38.3,40.8,38.3L40.8,38.3"/>
			<rect x="36.3" y="48.5" fill="#FFAAA8" width="9" height="1.1"/>
		</g>
		<g>
			<path fill="#FFFFFF" d="M59.3,38.4c2.5,0,4.5,1.8,4.5,3.9v6.4l-9,0l0.1-6.4C54.8,40.2,56.8,38.4,59.3,38.4L59.3,38.4"/>
			<rect x="54.8" y="48.6" fill="#FFAAA8" width="9" height="1.1"/>
		</g>
		<g>
			<path fill="#FFFFFF" d="M50.2,53.8c5.5,0,10,1.8,10,3.9v6.4l-20.1,0l0.1-6.4C40.2,55.5,44.7,53.8,50.2,53.8L50.2,53.8"/>
			<rect x="40.1" y="64" fill="#FFAAA8" width="20.1" height="1.1"/>
		</g>
		<g>
			<path fill="#FFAAA8" stroke="#FFAAA8" stroke-width="0.21" stroke-miterlimit="10" d="M50,68.9c5.1,0,9.3,1.2,9.3,2.6L51,75.3
				l-6.6-1l-3.7-2.8C40.7,70,44.9,68.9,50,68.9L50,68.9"/>
			<rect x="40.6" y="71.2" fill="#FFD265" width="18.8" height="12.3"/>
			<line fill="none" stroke="#A2A242" stroke-width="1.4762" stroke-miterlimit="10" x1="50.2" y1="71.2" x2="50.2" y2="83.5"/>
		</g>
	</g>
</g>
</svg>
